<?xml version="1.0" encoding="UTF-8"?>
<svg id="Layer_1" xmlns="http://www.w3.org/2000/svg" version="1.1" viewBox="0 0 462.34 247.66">
  <!-- Generator: Adobe Illustrator 30.5.1, SVG Export Plug-In . SVG Version: 2.1.4 Build 3)  -->
  <defs>
    <style>
      .st0 { fill: #000000; }
    </style>
  </defs>
  <g>
    <path class="st0" d="M15.38,190.41c0,1.59.14,2.8.41,3.62.27.82.82,1.37,1.65,1.65.82.27,2.08.41,3.78.41.16,0,.25.16.25.49s-.08.49-.25.49c-1.43,0-3.02-.03-4.77-.08-1.76-.05-3.67-.08-5.76-.08-1.97,0-3.87.03-5.67.08-1.81.05-3.43.08-4.85.08-.11,0-.16-.16-.16-.49s.05-.49.16-.49c1.7,0,2.97-.14,3.82-.41.85-.27,1.43-.82,1.73-1.65.3-.82.45-2.03.45-3.62v-38.08c0-1.59-.15-2.78-.45-3.58-.3-.79-.88-1.34-1.73-1.65-.85-.3-2.13-.45-3.82-.45-.11,0-.16-.16-.16-.49s.05-.49.16-.49c1.42,0,3.04.04,4.85.12,1.81.08,3.7.12,5.67.12,2.08,0,4.02-.04,5.8-.12,1.78-.08,3.36-.12,4.73-.12.16,0,.25.16.25.49s-.08.49-.25.49c-1.64,0-2.89.16-3.74.49-.85.33-1.41.9-1.69,1.73-.27.82-.41,2.03-.41,3.62v37.91Z"/>
    <path class="st0" d="M43.26,153.98c0,2.09.53,3.91,1.6,5.47,1.07,1.56,2.47,2.98,4.19,4.24,1.73,1.26,3.55,2.52,5.47,3.78,2.08,1.32,4.07,2.7,5.96,4.15,1.89,1.45,3.45,3.13,4.69,5.02,1.23,1.89,1.85,4.15,1.85,6.78,0,2.91-.78,5.46-2.34,7.65-1.56,2.19-3.67,3.91-6.33,5.14-2.66,1.23-5.69,1.85-9.09,1.85-1.65,0-3.36-.16-5.14-.49-1.78-.33-3.4-.74-4.85-1.23-1.45-.49-2.51-1.02-3.17-1.56-.22-.16-.41-.34-.58-.53-.16-.19-.25-.54-.25-1.03l-.25-13.08c-.05-.27.07-.42.37-.45.3-.03.48.07.53.29.82,1.7,1.73,3.49,2.71,5.39.99,1.89,2.1,3.63,3.33,5.22,1.23,1.59,2.62,2.89,4.15,3.9,1.53,1.02,3.29,1.52,5.26,1.52,1.26,0,2.47-.22,3.62-.66,1.15-.44,2.1-1.23,2.84-2.39.74-1.15,1.11-2.74,1.11-4.77,0-2.58-.58-4.78-1.73-6.62-1.15-1.84-2.63-3.45-4.44-4.85-1.81-1.4-3.7-2.73-5.67-3.99-1.92-1.26-3.76-2.56-5.51-3.91-1.76-1.34-3.18-2.88-4.28-4.61-1.1-1.73-1.64-3.8-1.64-6.21,0-3.07.86-5.58,2.59-7.52,1.73-1.95,3.92-3.38,6.58-4.32,2.66-.93,5.36-1.4,8.1-1.4,1.97,0,3.95.18,5.92.53,1.97.36,3.54.78,4.69,1.27.55.22.89.47,1.03.74.14.28.21.58.21.91v12.09c0,.16-.12.29-.37.37-.25.08-.43.04-.53-.12-.33-.66-.8-1.74-1.4-3.25-.6-1.51-1.4-3.08-2.39-4.73-.99-1.64-2.25-3.06-3.78-4.23-1.54-1.18-3.4-1.77-5.59-1.77-1.37,0-2.62.28-3.74.82-1.12.55-2.03,1.36-2.71,2.43-.69,1.07-1.03,2.45-1.03,4.15Z"/>
    <path class="st0" d="M105.51,198.06c-3.95,0-7.52-.7-10.73-2.1-3.21-1.4-5.95-3.33-8.22-5.8-2.28-2.47-4.03-5.3-5.26-8.51-1.23-3.21-1.85-6.62-1.85-10.24,0-4.44.86-8.33,2.59-11.68,1.73-3.34,4.02-6.13,6.87-8.35,2.85-2.22,5.98-3.88,9.38-4.97,3.4-1.1,6.77-1.65,10.11-1.65,4.06,0,7.69.73,10.9,2.18,3.21,1.45,5.94,3.41,8.18,5.88,2.25,2.47,3.96,5.26,5.14,8.39,1.18,3.12,1.77,6.33,1.77,9.62,0,3.84-.77,7.4-2.3,10.69-1.54,3.29-3.63,6.17-6.29,8.64-2.66,2.47-5.73,4.4-9.21,5.8-3.48,1.4-7.17,2.1-11.06,2.1ZM108.22,196c3.07,0,5.81-.88,8.22-2.63,2.41-1.76,4.32-4.33,5.72-7.73,1.4-3.4,2.1-7.54,2.1-12.42s-.77-9.54-2.3-13.49c-1.54-3.95-3.73-7.06-6.58-9.33-2.85-2.27-6.28-3.41-10.28-3.41-4.99,0-8.83,1.89-11.51,5.67-2.69,3.78-4.03,9.02-4.03,15.71,0,4,.47,7.69,1.4,11.06.93,3.37,2.23,6.31,3.91,8.8,1.67,2.5,3.65,4.41,5.92,5.76,2.28,1.34,4.76,2.01,7.44,2.01Z"/>
    <path class="st0" d="M168.42,145.42c5.04,0,8.92.92,11.64,2.75,2.71,1.84,4.07,4.4,4.07,7.69s-.91,6.1-2.72,8.59c-1.81,2.5-4.12,4.43-6.95,5.8-2.83,1.37-5.8,2.06-8.92,2.06h-2.34c-.8,0-1.52-.03-2.18-.08v18.18c0,1.59.14,2.8.41,3.62.27.82.82,1.37,1.64,1.65.82.27,2.08.41,3.78.41.11,0,.16.16.16.49s-.05.49-.16.49c-1.43,0-3.02-.03-4.77-.08-1.76-.05-3.68-.08-5.76-.08-1.97,0-3.85.03-5.63.08-1.78.05-3.38.08-4.81.08-.16,0-.25-.16-.25-.49s.08-.49.25-.49c1.7,0,2.96-.14,3.78-.41.82-.27,1.38-.82,1.68-1.65.3-.82.45-2.03.45-3.62v-38.08c0-1.59-.14-2.78-.41-3.58-.27-.79-.82-1.34-1.65-1.65-.82-.3-2.08-.45-3.78-.45-.11,0-.16-.16-.16-.49s.05-.49.16-.49c1.42,0,3.01.04,4.77.12,1.75.08,3.62.12,5.59.12,1.21,0,2.5-.04,3.87-.12,1.37-.08,2.77-.16,4.19-.25s2.77-.12,4.03-.12ZM174.75,158.99c0-3.23-.33-5.7-.99-7.4-.66-1.7-1.56-2.86-2.72-3.5-1.15-.63-2.47-.95-3.95-.95-2.19,0-3.76.41-4.69,1.23-.93.82-1.4,2.19-1.4,4.11v17.43c.77.11,1.59.19,2.47.25.88.05,1.64.08,2.3.08,3.23,0,5.54-.89,6.91-2.67,1.37-1.78,2.06-4.65,2.06-8.59ZM180.59,197.07c-.44,0-1.38-1.11-2.84-3.33-1.45-2.22-3.1-5.26-4.93-9.13-1.84-3.87-3.63-8.24-5.39-13.12l6.42-2.63c3.07,6.69,5.78,12.02,8.14,15.99,2.36,3.98,4.44,6.84,6.25,8.6,1.81,1.76,3.4,2.63,4.77,2.63.16,0,.25.16.25.49s-.08.49-.25.49h-12.42Z"/>
    <path class="st0" d="M222.29,145.42c5.04,0,8.92.92,11.64,2.75,2.71,1.84,4.07,4.4,4.07,7.69s-.91,6.1-2.71,8.59c-1.81,2.5-4.13,4.43-6.95,5.8-2.82,1.37-5.8,2.06-8.92,2.06h-2.34c-.8,0-1.52-.03-2.18-.08v18.18c0,1.59.14,2.8.41,3.62.27.82.82,1.37,1.65,1.65.82.27,2.08.41,3.78.41.11,0,.16.16.16.49s-.05.49-.16.49c-1.43,0-3.02-.03-4.77-.08-1.76-.05-3.67-.08-5.76-.08-1.97,0-3.85.03-5.63.08-1.78.05-3.39.08-4.81.08-.16,0-.25-.16-.25-.49s.08-.49.25-.49c1.7,0,2.96-.14,3.78-.41.82-.27,1.38-.82,1.69-1.65.3-.82.45-2.03.45-3.62v-38.08c0-1.59-.14-2.78-.41-3.58-.27-.79-.82-1.34-1.65-1.65-.82-.3-2.09-.45-3.78-.45-.11,0-.16-.16-.16-.49s.05-.49.16-.49c1.43,0,3.02.04,4.77.12,1.75.08,3.62.12,5.59.12,1.81,0,3.8-.08,5.96-.25,2.17-.16,4.21-.25,6.13-.25ZM228.62,158.99c0-3.23-.33-5.7-.99-7.4-.66-1.7-1.56-2.86-2.71-3.5-1.15-.63-2.47-.95-3.95-.95-2.19,0-3.76.41-4.69,1.23-.93.82-1.4,2.19-1.4,4.11v17.43c.77.11,1.59.19,2.47.25.88.05,1.65.08,2.3.08,3.23,0,5.54-.89,6.91-2.67,1.37-1.78,2.06-4.65,2.06-8.59ZM239.97,197.07c-.82,0-2.15-1.03-3.99-3.08-1.84-2.06-4.04-5.03-6.62-8.92-2.58-3.89-5.48-8.55-8.72-13.98l7.56-2.3c4.39,6.63,8.13,11.95,11.23,15.96,3.1,4,5.85,6.9,8.27,8.68,2.41,1.78,4.71,2.67,6.91,2.67.11,0,.16.16.16.49s-.05.49-.16.49h-14.64Z"/>
    <path class="st0" d="M284.13,198.06c-3.95,0-7.52-.7-10.73-2.1-3.21-1.4-5.95-3.33-8.22-5.8-2.28-2.47-4.03-5.3-5.26-8.51-1.23-3.21-1.85-6.62-1.85-10.24,0-4.44.86-8.33,2.59-11.68,1.73-3.34,4.02-6.13,6.87-8.35,2.85-2.22,5.97-3.88,9.37-4.97,3.4-1.1,6.77-1.65,10.11-1.65,4.06,0,7.69.73,10.9,2.18,3.21,1.45,5.93,3.41,8.18,5.88,2.25,2.47,3.96,5.26,5.14,8.39,1.18,3.12,1.77,6.33,1.77,9.62,0,3.84-.77,7.4-2.3,10.69-1.54,3.29-3.63,6.17-6.29,8.64-2.66,2.47-5.73,4.4-9.21,5.8-3.48,1.4-7.17,2.1-11.06,2.1ZM286.85,196c3.07,0,5.81-.88,8.22-2.63,2.41-1.76,4.32-4.33,5.72-7.73,1.4-3.4,2.1-7.54,2.1-12.42s-.77-9.54-2.3-13.49c-1.54-3.95-3.73-7.06-6.58-9.33-2.85-2.27-6.28-3.41-10.28-3.41-4.99,0-8.83,1.89-11.51,5.67-2.69,3.78-4.03,9.02-4.03,15.71,0,4,.47,7.69,1.4,11.06.93,3.37,2.23,6.31,3.91,8.8,1.67,2.5,3.65,4.41,5.92,5.76,2.27,1.34,4.76,2.01,7.44,2.01Z"/>
    <path class="st0" d="M338.9,190.08c0,1.65.18,2.89.53,3.74.36.85,1.11,1.44,2.26,1.77,1.15.33,2.85.49,5.1.49.16,0,.25.16.25.49s-.08.49-.25.49c-1.76,0-3.66-.03-5.72-.08-2.06-.05-4.29-.08-6.7-.08-1.98,0-3.85.03-5.63.08-1.78.05-3.38.08-4.81.08-.16,0-.25-.16-.25-.49s.08-.49.25-.49c1.7,0,2.96-.14,3.78-.41.82-.27,1.37-.82,1.65-1.65.27-.82.41-2.03.41-3.62v-38.08c0-1.59-.14-2.78-.41-3.58-.28-.79-.82-1.34-1.65-1.65-.82-.3-2.09-.45-3.78-.45-.16,0-.25-.16-.25-.49s.08-.49.25-.49c1.43,0,3.01.04,4.77.12,1.76.08,3.62.12,5.59.12,1.32,0,3.04-.08,5.18-.25,2.14-.16,4.14-.25,6-.25,3.45,0,6.51.45,9.17,1.36,2.66.9,4.78,2.34,6.37,4.32,1.59,1.97,2.44,4.58,2.55,7.81.11,2.8-.34,5.24-1.36,7.32-1.02,2.08-2.41,3.81-4.19,5.18-1.78,1.37-3.76,2.4-5.92,3.08-2.17.69-4.32,1.03-6.46,1.03-.55,0-1.16-.03-1.85-.08-.69-.05-1.36-.16-2.01-.33-.16-.05-.22-.26-.16-.62.05-.36.19-.51.41-.45.44.11.93.19,1.48.25.55.05.99.08,1.32.08,1.59,0,3.04-.49,4.36-1.48,1.32-.99,2.38-2.49,3.21-4.52.82-2.03,1.23-4.55,1.23-7.57s-.41-5.36-1.23-7.36c-.82-2-2.03-3.54-3.62-4.61s-3.56-1.6-5.92-1.6c-.99,0-1.77.14-2.34.41-.58.27-.99.8-1.23,1.56-.25.77-.37,1.87-.37,3.29v37.58Z"/>
    <path class="st0" d="M389.39,190.41c0,1.59.14,2.8.41,3.62.27.82.82,1.37,1.65,1.65.82.27,2.08.41,3.78.41.16,0,.25.16.25.49s-.08.49-.25.49c-1.43,0-3.02-.03-4.77-.08-1.76-.05-3.67-.08-5.76-.08-1.98,0-3.87.03-5.68.08-1.81.05-3.43.08-4.85.08-.11,0-.16-.16-.16-.49s.05-.49.16-.49c1.7,0,2.97-.14,3.82-.41.85-.27,1.43-.82,1.73-1.65.3-.82.45-2.03.45-3.62v-38.08c0-1.59-.15-2.78-.45-3.58-.3-.79-.88-1.34-1.73-1.65-.85-.3-2.13-.45-3.82-.45-.11,0-.16-.16-.16-.49s.05-.49.16-.49c1.43,0,3.04.04,4.85.12,1.81.08,3.7.12,5.68.12,2.08,0,4.01-.04,5.8-.12,1.78-.08,3.36-.12,4.73-.12.16,0,.25.16.25.49s-.08.49-.25.49c-1.64,0-2.89.16-3.74.49-.85.33-1.41.9-1.68,1.73-.27.82-.41,2.03-.41,3.62v37.91Z"/>
    <path class="st0" d="M461.93,196.08c.27,0,.41.16.41.49s-.14.49-.41.49c-1.64,0-3.36-.05-5.14-.16-1.78-.11-3.49-.16-5.14-.16-1.86,0-3.48.05-4.85.16-1.37.11-2.91.16-4.61.16-.22,0-.33-.16-.33-.49s.11-.49.33-.49c2.25,0,3.55-.45,3.91-1.36.36-.91-.15-2.7-1.52-5.39l-16.69-32.98,4.03-7.07-16.36,36.1c-1.48,3.29-1.51,5.89-.08,7.81,1.43,1.92,3.67,2.88,6.74,2.88.27,0,.41.16.41.49s-.14.49-.41.49c-1.65,0-3.15-.05-4.52-.16-1.37-.11-3.1-.16-5.18-.16s-3.85.05-5.14.16c-1.29.11-2.87.16-4.73.16-.22,0-.33-.16-.33-.49s.11-.49.33-.49c1.48,0,2.75-.31,3.82-.95,1.07-.63,2.14-1.78,3.21-3.45,1.07-1.67,2.29-4.04,3.66-7.11l17.84-39.23c.05-.16.3-.26.74-.29.44-.03.69.07.74.29l20.56,40.46c1.32,2.58,2.45,4.62,3.41,6.13.96,1.51,1.86,2.58,2.71,3.21.85.63,1.71.95,2.59.95ZM417.03,178.24l1.23-2.3h23.69l.58,2.3h-25.49Z"/>
  </g>
  <g>
    <path class="st0" d="M40.89,221.94l7.44,20.98h.14l7.19-20.98h1.55l7.04,21.09h.14l7.48-21.09h1.66l-8.96,25.28h-2.13l-6.68-19.76h-.18l-6.9,19.76h-2.17l-8.96-25.28h3.32Z"/>
    <path class="st0" d="M97.99,221.94v1.99h-13.04v9.07h11.2v1.66h-11.2v10.58h13.04v1.99h-16.32v-25.28h16.32Z"/>
    <path class="st0" d="M106.12,247.23v-25.28h3.29v23.3h13.04v1.99h-16.32Z"/>
    <path class="st0" d="M130.57,247.23v-25.28h3.29v23.3h13.04v1.99h-16.32Z"/>
    <path class="st0" d="M177.05,221.94v25.72h-.18l-20.04-19.76h-.14v19.32h-1.66v-25.72h.18l20.05,19.76h.14v-19.32h1.66Z"/>
    <path class="st0" d="M204.75,221.94v1.99h-13.04v9.07h11.2v1.66h-11.2v10.58h13.04v1.99h-16.32v-25.28h16.32Z"/>
    <path class="st0" d="M212.34,240.83c.02.41.12.91.29,1.5s.49,1.16.97,1.71c.48.55,1.18,1.03,2.09,1.43.91.4,2.13.59,3.65.59,1.9,0,3.42-.36,4.57-1.08,1.14-.72,1.71-1.87,1.71-3.43,0-1.25-.36-2.25-1.08-3-.72-.75-1.63-1.38-2.73-1.9-1.09-.52-2.28-.98-3.56-1.39-1.28-.41-2.46-.9-3.56-1.48-1.09-.58-2-1.3-2.73-2.17-.72-.87-1.08-2.01-1.08-3.43,0-1.08.22-2.05.67-2.89.45-.84,1.05-1.54,1.81-2.09.76-.55,1.64-.97,2.64-1.26,1-.29,2.06-.43,3.17-.43s2.08.13,3.06.38c.98.25,1.85.63,2.62,1.12.77.49,1.41,1.09,1.92,1.8.51.71.83,1.51.98,2.4h-2.46c-.19-1.42-.84-2.46-1.94-3.12-1.1-.66-2.43-.99-4-.99-.94,0-1.77.11-2.5.34-.72.23-1.33.53-1.83.9-.49.37-.87.81-1.12,1.32-.25.5-.38,1.05-.38,1.62,0,1.04.37,1.87,1.12,2.49.75.63,1.68,1.18,2.81,1.66,1.12.48,2.34.94,3.66,1.37,1.31.43,2.53.97,3.66,1.61,1.12.64,2.06,1.43,2.81,2.38.75.95,1.12,2.17,1.12,3.67,0,1.08-.22,2.07-.65,2.96-.43.89-1.05,1.65-1.85,2.27-.8.63-1.75,1.11-2.88,1.44-1.12.34-2.38.51-3.78.51s-2.64-.16-3.8-.49c-1.16-.32-2.17-.78-3.02-1.37-.86-.59-1.53-1.31-2.03-2.15-.49-.84-.76-1.78-.81-2.82h2.46Z"/>
    <path class="st0" d="M237.62,240.83c.02.41.12.91.29,1.5.17.59.49,1.16.97,1.71.48.55,1.18,1.03,2.09,1.43.91.4,2.13.59,3.65.59,1.9,0,3.43-.36,4.57-1.08,1.14-.72,1.72-1.87,1.72-3.43,0-1.25-.36-2.25-1.08-3-.72-.75-1.63-1.38-2.73-1.9-1.1-.52-2.28-.98-3.56-1.39-1.28-.41-2.46-.9-3.56-1.48-1.1-.58-2-1.3-2.73-2.17-.72-.87-1.08-2.01-1.08-3.43,0-1.08.22-2.05.67-2.89.45-.84,1.05-1.54,1.81-2.09s1.64-.97,2.64-1.26c1-.29,2.05-.43,3.16-.43s2.08.13,3.06.38c.98.25,1.85.63,2.62,1.12s1.41,1.09,1.92,1.8c.51.71.83,1.51.98,2.4h-2.46c-.19-1.42-.84-2.46-1.94-3.12-1.1-.66-2.43-.99-4-.99-.94,0-1.77.11-2.5.34s-1.33.53-1.83.9c-.49.37-.87.81-1.12,1.32-.25.5-.38,1.05-.38,1.62,0,1.04.37,1.87,1.12,2.49.75.63,1.68,1.18,2.81,1.66,1.12.48,2.34.94,3.66,1.37s2.53.97,3.66,1.61c1.12.64,2.06,1.43,2.81,2.38.75.95,1.12,2.17,1.12,3.67,0,1.08-.22,2.07-.65,2.96s-1.05,1.65-1.85,2.27c-.8.63-1.75,1.11-2.88,1.44-1.12.34-2.38.51-3.78.51s-2.64-.16-3.8-.49c-1.16-.32-2.16-.78-3.02-1.37-.86-.59-1.53-1.31-2.03-2.15-.49-.84-.77-1.78-.81-2.82h2.46Z"/>
    <path class="st0" d="M301.15,243.54c-.31.36-.77.78-1.37,1.26-.6.48-1.35.93-2.26,1.35-.9.42-1.96.78-3.18,1.07-1.22.29-2.59.43-4.14.43-2.43,0-4.53-.38-6.28-1.14-1.76-.76-3.2-1.76-4.33-3-1.13-1.24-1.97-2.66-2.51-4.26-.54-1.6-.81-3.24-.81-4.93,0-1.95.34-3.71,1.01-5.29.67-1.58,1.63-2.92,2.85-4.04,1.23-1.12,2.7-1.98,4.42-2.58,1.72-.6,3.63-.9,5.72-.9,1.44,0,2.73.14,3.87.43,1.13.29,2.12.69,2.96,1.19.84.51,1.55,1.11,2.11,1.81.56.7,1.03,1.46,1.39,2.28h-2.67c-.17-.51-.46-1-.88-1.5-.42-.49-.96-.93-1.63-1.32s-1.42-.7-2.27-.94c-.85-.24-1.8-.36-2.84-.36-1.52,0-2.92.28-4.21.83-1.29.55-2.4,1.32-3.34,2.31-.94.99-1.67,2.16-2.18,3.52-.52,1.36-.78,2.86-.78,4.5,0,1.54.25,3.02.74,4.44.49,1.42,1.22,2.67,2.18,3.76.96,1.08,2.17,1.95,3.61,2.6,1.44.65,3.11.97,4.98.97,3.37,0,6.28-1.15,8.74-3.47l1.08.97Z"/>
    <path class="st0" d="M308.91,247.23v-25.28h3.29v23.3h13.04v1.99h-16.32Z"/>
    <path class="st0" d="M338.1,221.94v25.28h-3.29v-25.28h3.29Z"/>
    <path class="st0" d="M372.95,221.94v25.72h-.18l-20.05-19.76h-.14v19.32h-1.66v-25.72h.18l20.04,19.76h.14v-19.32h1.66Z"/>
    <path class="st0" d="M389.06,221.94v25.28h-3.29v-25.28h3.29Z"/>
    <path class="st0" d="M424.23,243.54c-.31.36-.77.78-1.37,1.26-.6.48-1.35.93-2.26,1.35-.9.42-1.96.78-3.18,1.07-1.21.29-2.59.43-4.13.43-2.43,0-4.53-.38-6.29-1.14-1.76-.76-3.2-1.76-4.33-3-1.13-1.24-1.97-2.66-2.51-4.26-.54-1.6-.81-3.24-.81-4.93,0-1.95.34-3.71,1.01-5.29.67-1.58,1.62-2.92,2.85-4.04,1.23-1.12,2.7-1.98,4.42-2.58,1.72-.6,3.63-.9,5.73-.9,1.44,0,2.73.14,3.86.43,1.13.29,2.12.69,2.96,1.19.84.51,1.55,1.11,2.11,1.81.56.7,1.03,1.46,1.39,2.28h-2.67c-.17-.51-.46-1-.88-1.5-.42-.49-.96-.93-1.62-1.32-.66-.38-1.42-.7-2.28-.94-.85-.24-1.8-.36-2.83-.36-1.52,0-2.92.28-4.21.83-1.29.55-2.4,1.32-3.34,2.31-.94.99-1.67,2.16-2.19,3.52-.52,1.36-.78,2.86-.78,4.5,0,1.54.25,3.02.74,4.44.49,1.42,1.22,2.67,2.18,3.76.96,1.08,2.17,1.95,3.61,2.6,1.44.65,3.11.97,4.99.97,3.37,0,6.28-1.15,8.74-3.47l1.08.97Z"/>
  </g>
  <ellipse class="st0" cx="232" cy="28.14" rx="28.61" ry="28.14"/>
  <path class="st0" d="M413.71,116.9c-103.03-67.9-196.86-64.32-257.43-49.36-65.7,16.23-107.59,48.97-108.01,49.3l-1.8-1.56c.42-.33,42.69-33.39,108.96-49.78,61.2-15.13,155.96-18.79,259.9,49.72l-1.62,1.68Z"/>
  <rect class="st0" x="230.51" y="56.29" width="2.98" height="70.65"/>
</svg>