<?xml version="1.0" encoding="UTF-8"?>
<svg id="Layer_1" xmlns="http://www.w3.org/2000/svg" version="1.1" viewBox="0 0 978.09 978.09">
  <!-- Generator: Adobe Illustrator 29.8.2, SVG Export Plug-In . SVG Version: 2.1.1 Build 3)  -->
  <defs>
    <style>
      .st0 {
        fill: #020202;
      }

      .st1 {
        fill: #030303;
      }

      .st2 {
        fill: #1e1d1d;
      }

      .st3 {
        fill: #5f5f5f;
      }

      .st4 {
        fill: #040404;
      }

      .st5 {
        fill: #010101;
      }
    </style>
  </defs>
  <path class="st5" d="M777.94,446.24c-3.29-1.02-9.08-5.54-13.78-7.37-30.09-11.68-72.09-8.37-102.41,2.07-78.18,26.9-134.55,87.8-203.49,129.58-10.89,6.6-18.24,16.18-32.48,17.74-29.42,3.23-87.48,1.62-115.65-5.95-39-10.48-48.37-20.77-76.04-48.2-22.74-22.55-19.84-26.46-32.09-53.82-13.97-31.18-28.19-38.75-22.36-77.37,4.17-27.63,18.67-44.86,31.53-67.6,4.39-7.75,23.94-13.73,32.01-18.21,9.12-5.07,17.25-14.14,28.27-16.67,7.21-1.65,16.81,1.58,16.3-10.2-.7-16.13-17.86-5.19-24.27-5.04-8.25.19-16.48-5.68-27.97-3.52-7.82,1.47-33.93,20.45-40.99,26.42-18.6,15.73-38.17,34-51.77,53.97-32.63,47.92-21.84,93.76-10.03,146.53,4.56,20.37,11.28,40.39,19.48,59.82,17.05,40.37,35.5,60.16,70.81,85.15,61.49,43.54,132.56,52.76,202.15,19.98,38.68-18.22,119.24-63.12,148.05-92.5,5.77-5.89,10.81-14.93,16.41-20.59,6.79-6.86,17.73-13.17,24.57-20.37,21.32-22.44,31.55-42.16,61.56-57.39,26.15-13.27,72.11-12.01,90.95,13.14,13.16,17.57,32.4,69.11,38.42,91.11,4.23,15.46,4.12,33.48,7.54,49.29.7,4.16,5.66.32,6.33.95-3.86,8.05,11.96,7.94,16.59,5.35,6.52-3.65,3.74-9.69,4.69-15.13,2.36-13.47,2.91-29.67,3.81-43.77,2.89-45.24-8.81-95.25-43.07-127.38-10-9.38-12.23-6.64-23.06-9.99Z"/>
  <path class="st5" d="M854.02,343.72c-2.65-4.77-30.39-1.93-36.96-2.7-10.54-1.24-23.67-7.78-33.26-9.03-37.85-4.93-77.41-6.44-114.73-12.15-21.63-3.31-33.14.23-54.3.69-24.44.53-44.97-3.55-68.57-7.35-22.08-3.56-44.15-8.75-65.94-12.03-5.88-.88-9.13-.45-13.46-.98-2.7-.33-5.27-4.67-9.91-6.07-7.72-2.33-17.18-1.83-25.18-1.92l1.32-3.94-13.55,9.56c-4.85,1.97-40.8,1.67-47.76.86-10.77-1.26-29.97-15.29-39.18-7.17-6.51,5.74-6.4,15.97-8.02,23.69-.61,2.88-2.99,4.87-3.18,8.03-.36,5.94,10.52,27.98,14.62,32.36,1.79,1.92,22.75,14.79,26.63,16.99,11.97,6.78,40.35,16.14,53.95,17.42,6.82.64,21.2-3.35,20.48,5.31,17.98-10.57,44.41-3.69,64.76-3.95l-1.34,2.62c6.06,1.06,11.92-1.78,17.83-1.36,6.98.5,23.48,4.75,29.4,7.68,18.3,2.47,48.57,21.63,41.33-12.91,8.89-.21,17-4.49,25.8-5.27,8.19-.73,18.96.07,27.68-.08,27.25-.44,49.06-.06,75.73,3.68,26.68,3.74,52.07,3.26,79.01,2.93,11.7-.15,22.83,1.64,33.56-5.98,8.38-5.95,5.58-11.03,8.72-16.4,2.05-3.51,17.58-10.54,17.53-12.57-3.34-2.56-1.54-7.31-3.01-9.96Z"/>
  <path class="st5" d="M663.82,241.46c7.37-8.07,15.42-22.19,22.98-31.88,7.55-9.68,4.7-16.02,6.91-26.14,1.84-8.46,8.47-13.34,8.95-25.44,2.1-52.12-32.59-106.4-87.82-109.07-18.14-.88-47.93.65-63.28,10.86-11.44,7.61-29.92,37.39-31.27,50.68-5.8,57.11,8.19,99.93,46.75,141.58,26.09,28.19,73.5,14.91,96.79-10.59ZM553.33,149.45c-2.49-6.17-.91-18.96,2.79-24.29,1.49-2.15,4.21-2.94,6.25-5.65,2.53-3.37,4.12-9.44,5.89-11.96,1.01-1.43,6.94-5.75,8.46-8.16,7.39,2.7,14.3-.55,20.82-.23,1.66.08,12.75,3.36,14.2,4.08,1.93.97,1.82,3.51,3.72,4.59,1.23.7,3.42-.44,5.7.74,12.86,6.65,16.87,24.2,16.87,37.56,0,3.49-4.78,23.99-6.2,26.97-3.61,7.55-25.92,34.77-33.19,36.86-5.9,1.7-15.45.69-20.64-2.58-8.84-5.58-6.76-7.76-10.89-14.23-1.74-2.72-8.5-9.02-8.5-12.65v-37.67l-5.27,6.61Z"/>
  <path class="st5" d="M712.67,659.54c-.61-2.95-2.84-5.54-3.31-8.58-1.76-11.43,1.72-26.54-.39-37.94-3.14-16.92-25.83-26.31-41.34-27.39-38.85-2.7-52.24,18.96-76.61,42.31-4.95,4.74-10.37,6.86-15,12.75-14.7,18.68-26.02,52.92-16.75,75.76,3.22,7.94,20.86,29.52,27.54,35.23,18.75,16.01,53.73,20.84,75.33,8.17,41.4-24.27,60.64-51.19,50.53-100.33ZM668.02,695.7c-5.57,10.14-9.36,23.1-15.8,33.11-.81,1.26-7.15,9.21-7.7,9.48-11.96,6.04-21.45-22.85-26.86-26.69-1.56-1.11-5.78-1.31-6.14-1.83-.81-1.17.91-4.32.6-5.86-1.32-6.66-7.86-17.06-8.67-23.75-1.02-8.43,2.82-28.84,7.93-35.81.66-.9,11.86-9.59,12.65-9.52,1.13.09,5,5.28,7.63,6.57,5.71,2.8,13.2,1.16,17.54,3.61,13.94,7.87,9.37,34.11,28.35,34.45,2.34,2.35-8.12,13.66-9.54,16.23Z"/>
  <path class="st1" d="M419.73,922.07l-23.7-27.85c26.35.08,33.57-32.45,5.94-36.34-14.47-2.04-33.28,1.51-48.24,0-1.37,5.44,10.59,1.32,11.9,2.64-1.74,18.92,2.29,41.78.06,60.21-.17,1.42.05,3.04-1.3,3.99-3.15,2.19-11.65-2.16-10.66,3.22h33.04v-2.64c-1.47-.4-10.57.52-10.57,0v-31.72c2.87-.27,4.76-.22,7.34,1.25,6.2,3.52,15.85,22.41,23.05,27.18l-5.28,5.93h27.76c.81-4.65-7.17-2.45-9.34-5.86ZM376.2,890.93v-30.4h20.49c.98,0,7.61,4.52,8.62,5.92,3.92,5.43,3.48,14-.74,19.14-1.09,1.32-6.92,5.34-7.88,5.34h-20.49Z"/>
  <path class="st1" d="M508.29,922.07l-23.7-27.85c26.35.08,33.57-32.45,5.94-36.34-14.47-2.04-33.28,1.51-48.24,0-1.37,5.44,10.59,1.32,11.9,2.64-1.74,18.92,2.29,41.78.06,60.21-.17,1.42.05,3.04-1.3,3.99-3.15,2.19-11.65-2.16-10.66,3.22h33.04v-2.64c-1.47-.4-10.57.52-10.57,0v-31.72c2.87-.27,4.76-.22,7.34,1.25,6.2,3.52,15.85,22.41,23.05,27.18l-5.28,5.93h27.76c.81-4.65-7.17-2.45-9.34-5.86ZM464.76,890.93v-30.4h20.49c.98,0,7.61,4.52,8.62,5.92,3.92,5.43,3.48,14-.74,19.14-1.09,1.32-6.92,5.34-7.88,5.34h-20.49Z"/>
  <path class="st0" d="M292.61,855.59c-42.03,5.52-41.4,67.89,0,73.32,54.24,7.12,55.63-80.63,0-73.32ZM312.31,920.88c-6.95,7.01-23.67,6.18-30.48-1-15.5-16.35-10.05-74.61,25.24-59.6,17.95,7.63,17.54,48.19,5.24,60.61Z"/>
  <path class="st0" d="M563.56,855.59c-42.03,5.52-41.4,67.89,0,73.32,54.24,7.12,55.63-80.63,0-73.32ZM583.26,920.88c-6.95,7.01-23.67,6.18-30.48-1-15.5-16.35-10.05-74.61,25.24-59.6,17.95,7.63,17.54,48.19,5.24,60.61Z"/>
  <path class="st1" d="M834.17,923.98l-26.95-67.94c-5.64-3.8-7.12,3.8-9.21,7.99-4.98,9.97-21.77,54.45-27.24,58.66-2.31,1.78-4.45,1.66-6.85,2.46-2.07.69-3.76-1.15-3.1,2.79h25.11c.99-4.46-5.64-2.29-7.82-4.09-1.39-2,4.71-16.68,6.36-18.89.91-1.21,27.04-1.49,29.23-.17,1.91,1.16,8.94,19.51,7.91,20.49-2.82.79-10.32-2.28-9.25,2.65h31.72c.94-5.55-6.99-.44-9.92-3.96ZM787.26,900.18l6.8-16.33,7.07-12.75,11.25,29.09h-25.11Z"/>
  <path class="st4" d="M672.93,857.89c-13.9-2.31-33.67,1.71-48.24,0-1.37,5.44,10.59,1.32,11.9,2.64-1.74,18.92,2.29,41.78.06,60.21-.17,1.42.05,3.04-1.3,3.99-3.15,2.19-11.65-2.16-10.66,3.22h33.04c1.45-5.34-9.33-1.39-10.58-2.64-.98-.98.75-23.92,0-27.77,14.91.59,47.87-1.8,43.33-24.13-1.39-6.82-11-14.42-17.55-15.51ZM678.82,879.53c-1.5,15.22-19.72,16.26-31.67,15.36v-34.36c6.09.83,14.82-1.14,20.49,0,7.82,1.57,11.9,11.67,11.18,19Z"/>
  <path class="st1" d="M198.06,868.08c2.42-10.57,24.64-11.47,31.46-4.28,4.03,4.25,2.08,11.45,7.89,9.95-.64-3.43,1.79-17.45-2.08-18.36-1.13-.27-4.31,1.4-6.51,1.29-11.01-.54-17.04-2.91-28.42,1.86-10.78,4.52-17.34,17.7-9.28,27.79,9.17,11.48,36.08,5.34,41.32,18.15,8.77,21.45-31.33,27.63-38.96,11.2-1.91-4.1.95-7.41-4.96-6.26.66,3.24-1.04,13.84.17,15.69.68,1.04,17.83,4.24,20.32,4.24,11.63,0,31.5-5.95,33.61-19.35,5.56-35.18-51.57-11.32-44.56-41.94Z"/>
  <path class="st0" d="M159.44,925.3c-2.26-2.26,1.76-56.19-.02-64.01.39-2.65,12.07,2.16,10.6-3.4h-33.04c-1.45,5.34,9.33,1.39,10.58,2.64,2.26,2.26-1.76,56.19.02,64.01-.39,2.65-12.07-2.16-10.6,3.4h33.04c1.45-5.34-9.33-1.39-10.58-2.64Z"/>
  <path class="st0" d="M731.74,925.3c-2.26-2.26,1.76-56.19-.02-64.01.39-2.65,12.07,2.16,10.6-3.4h-33.04c-1.45,5.34,9.33,1.39,10.58,2.64,2.26,2.26-1.76,56.19.02,64.01-.39,2.65-12.07-2.16-10.6,3.4h33.04c1.45-5.34-9.33-1.39-10.58-2.64Z"/>
  <path class="st2" d="M462.11,393.97c-3.41.27-8.9-1.49-10.57,2.62,2.89-.85,11.62,2.44,10.57-2.62Z"/>
  <path class="st3" d="M442.29,396.6h5.28s0-1.29,0-1.29c-2.81-.62-4.1-2.27-5.28,1.29Z"/>
</svg>