<?xml version="1.0" encoding="UTF-8"?>
<svg id="Layer_1" xmlns="http://www.w3.org/2000/svg" version="1.1" viewBox="0 0 978.09 978.09">
  <!-- Generator: Adobe Illustrator 29.8.2, SVG Export Plug-In . SVG Version: 2.1.1 Build 3)  -->
  <defs>
    <style>
      .st0 {
        fill: #1e1d1d;
      }

      .st1 {
        fill: #5f5f5f;
      }

      .st2 {
        fill: #010101;
      }
    </style>
  </defs>
  <path class="st2" d="M777.94,527.38c-3.29-1.02-9.08-5.54-13.78-7.37-30.09-11.68-72.09-8.37-102.41,2.07-78.18,26.9-134.55,87.8-203.49,129.58-10.89,6.6-18.24,16.18-32.48,17.74-29.42,3.23-87.48,1.62-115.65-5.95-39-10.48-48.37-20.77-76.04-48.2-22.74-22.55-19.84-26.46-32.09-53.82-13.97-31.18-28.19-38.75-22.36-77.37,4.17-27.63,18.67-44.86,31.53-67.6,4.39-7.75,23.94-13.73,32.01-18.21,9.12-5.07,17.25-14.14,28.27-16.67,7.21-1.65,16.81,1.58,16.3-10.2-.7-16.13-17.86-5.19-24.27-5.04-8.25.19-16.48-5.68-27.97-3.52-7.82,1.47-33.93,20.45-40.99,26.42-18.6,15.73-38.17,34-51.77,53.97-32.63,47.92-21.84,93.76-10.03,146.53,4.56,20.37,11.28,40.39,19.48,59.82,17.05,40.37,35.5,60.16,70.81,85.15,61.49,43.54,132.56,52.76,202.15,19.98,38.68-18.22,119.24-63.12,148.05-92.5,5.77-5.89,10.81-14.93,16.41-20.59,6.79-6.86,17.73-13.17,24.57-20.37,21.32-22.44,31.55-42.16,61.56-57.39,26.15-13.27,72.11-12.01,90.95,13.14,13.16,17.57,32.4,69.11,38.42,91.11,4.23,15.46,4.12,33.48,7.54,49.29.7,4.16,5.66.32,6.33.95-3.86,8.05,11.96,7.94,16.59,5.35,6.52-3.65,3.74-9.69,4.69-15.13,2.36-13.47,2.91-29.67,3.81-43.77,2.89-45.24-8.81-95.25-43.07-127.38-10-9.38-12.23-6.64-23.06-9.99Z"/>
  <path class="st2" d="M854.02,424.86c-2.65-4.77-30.39-1.93-36.96-2.7-10.54-1.24-23.67-7.78-33.26-9.03-37.85-4.93-77.41-6.44-114.73-12.15-21.63-3.31-33.14.23-54.3.69-24.44.53-44.97-3.55-68.57-7.35-22.08-3.56-44.15-8.75-65.94-12.03-5.88-.88-9.13-.45-13.46-.98-2.7-.33-5.27-4.67-9.91-6.07-7.72-2.33-17.18-1.83-25.18-1.92l1.32-3.94-13.55,9.56c-4.85,1.97-40.8,1.67-47.76.86-10.77-1.26-29.97-15.29-39.18-7.17-6.51,5.74-6.4,15.97-8.02,23.69-.61,2.88-2.99,4.87-3.18,8.03-.36,5.94,10.52,27.98,14.62,32.36,1.79,1.92,22.75,14.79,26.63,16.99,11.97,6.78,40.35,16.14,53.95,17.42,6.82.64,21.2-3.35,20.48,5.31,17.98-10.57,44.41-3.69,64.76-3.95l-1.34,2.62c6.06,1.06,11.92-1.78,17.83-1.36,6.98.5,23.48,4.75,29.4,7.68,18.3,2.47,48.57,21.63,41.33-12.91,8.89-.21,17-4.49,25.8-5.27,8.19-.73,18.96.07,27.68-.08,27.25-.44,49.06-.06,75.73,3.68,26.68,3.74,52.07,3.26,79.01,2.93,11.7-.15,22.83,1.64,33.56-5.98,8.38-5.95,5.58-11.03,8.72-16.4,2.05-3.51,17.58-10.54,17.53-12.57-3.34-2.56-1.54-7.31-3.01-9.96Z"/>
  <path class="st2" d="M663.82,322.61c7.37-8.07,15.42-22.19,22.98-31.88,7.55-9.68,4.7-16.02,6.91-26.14,1.84-8.46,8.47-13.34,8.95-25.44,2.1-52.12-32.59-106.4-87.82-109.07-18.14-.88-47.93.65-63.28,10.86-11.44,7.61-29.92,37.39-31.27,50.68-5.8,57.11,8.19,99.93,46.75,141.58,26.09,28.19,73.5,14.91,96.79-10.59ZM553.33,230.59c-2.49-6.17-.91-18.96,2.79-24.29,1.49-2.15,4.21-2.94,6.25-5.65,2.53-3.37,4.12-9.44,5.89-11.96,1.01-1.43,6.94-5.75,8.46-8.16,7.39,2.7,14.3-.55,20.82-.23,1.66.08,12.75,3.36,14.2,4.08,1.93.97,1.82,3.51,3.72,4.59,1.23.7,3.42-.44,5.7.74,12.86,6.65,16.87,24.2,16.87,37.56,0,3.49-4.78,23.99-6.2,26.97-3.61,7.55-25.92,34.77-33.19,36.86-5.9,1.7-15.45.69-20.64-2.58-8.84-5.58-6.76-7.76-10.89-14.23-1.74-2.72-8.5-9.02-8.5-12.65v-37.67l-5.27,6.61Z"/>
  <path class="st2" d="M712.67,740.68c-.61-2.95-2.84-5.54-3.31-8.58-1.76-11.43,1.72-26.54-.39-37.94-3.14-16.92-25.83-26.31-41.34-27.39-38.85-2.7-52.24,18.96-76.61,42.31-4.95,4.74-10.37,6.86-15,12.75-14.7,18.68-26.02,52.92-16.75,75.76,3.22,7.94,20.86,29.52,27.54,35.23,18.75,16.01,53.73,20.84,75.33,8.17,41.4-24.27,60.64-51.19,50.53-100.33ZM668.02,776.84c-5.57,10.14-9.36,23.1-15.8,33.11-.81,1.26-7.15,9.21-7.7,9.48-11.96,6.04-21.45-22.85-26.86-26.69-1.56-1.11-5.78-1.31-6.14-1.83-.81-1.17.91-4.32.6-5.86-1.32-6.66-7.86-17.06-8.67-23.75-1.02-8.43,2.82-28.84,7.93-35.81.66-.9,11.86-9.59,12.65-9.52,1.13.09,5,5.28,7.63,6.57,5.71,2.8,13.2,1.16,17.54,3.61,13.94,7.87,9.37,34.11,28.35,34.45,2.34,2.35-8.12,13.66-9.54,16.23Z"/>
  <path class="st0" d="M462.11,475.11c-3.41.27-8.9-1.49-10.57,2.62,2.89-.85,11.62,2.44,10.57-2.62Z"/>
  <path class="st1" d="M442.29,477.74h5.28s0-1.29,0-1.29c-2.81-.62-4.1-2.27-5.28,1.29Z"/>
</svg>